<?xml version="1.0" encoding="UTF-8"?>
<svg id="Layer_2" data-name="Layer 2" xmlns="http://www.w3.org/2000/svg" viewBox="0 0 32 32">
  <defs>
    <style>
      .cls-1 {
        fill: #ded656;
      }
    </style>
  </defs>
  <g id="Layer_1-2" data-name="Layer 1">
    <path class="cls-1" d="M31.71,15.29L16.71.29c-.39-.39-1.03-.39-1.42,0L.29,15.29c-.39.39-.39,1.03,0,1.42l14.99,14.99c.39.39,1.03.39,1.42,0l14.99-14.99c.39-.39.39-1.03,0-1.42ZM21.38,12.85h-1.33l-.25-3.05-2.66-.15v11.87l1.63.49v1.06h-5.44v-.94l1.53-.49v-12l-2.69.15-.25,3.05h-1.31l-.32-4.63h11.41l-.32,4.63Z"/>
  </g>
</svg>