<?xml version="1.0" encoding="UTF-8"?>
<svg id="Layer_2" data-name="Layer 2" xmlns="http://www.w3.org/2000/svg" viewBox="0 0 366.22 366.22">
  <defs>
    <style>
      .cls-1 {
        fill: #231f20;
      }

      .cls-2 {
        fill: #fff;
      }

      .cls-3 {
        fill: none;
      }

      .cls-4 {
        fill: #212222;
      }

      .cls-5 {
        fill: #32312f;
      }
    </style>
  </defs>
  <g id="Layer_3" data-name="Layer 3">
    <g>
      <g>
        <path class="cls-3" d="M183.11,37.12c79.22,0,143.44,64.22,143.44,143.44s-64.22,143.44-143.44,143.44c-79.22,0-143.44-64.22-143.44-143.44,0-79.22,64.22-143.44,143.44-143.44Z"/>
        <rect class="cls-4" x="175.07" y="4.9" width="16.07" height="64.44"/>
        <rect class="cls-4" x="299.31" y="76.6" width="16.07" height="64.44" transform="translate(247.58 -211.7) rotate(59.94)"/>
        <rect class="cls-4" x="299.31" y="220.1" width="16.07" height="64.44" transform="translate(679.68 112.7) rotate(120.06)"/>
        <rect class="cls-4" x="175.07" y="291.79" width="16.07" height="64.44" transform="translate(366.22 648.03) rotate(-180)"/>
        <rect class="cls-4" x="50.84" y="220.1" width="16.07" height="64.44" transform="translate(-130.02 429.66) rotate(-120.06)"/>
        <rect class="cls-4" x="50.84" y="76.6" width="16.07" height="64.44" transform="translate(-64.8 105.26) rotate(-59.94)"/>
      </g>
      <g>
        <path class="cls-5" d="M183.11,16c44.64,0,86.6,17.38,118.17,48.95,31.56,31.56,48.95,73.53,48.95,118.17s-17.38,86.6-48.95,118.17-73.53,48.95-118.17,48.95-86.6-17.38-118.17-48.95c-31.56-31.56-48.95-73.53-48.95-118.17s17.38-86.6,48.95-118.17c31.56-31.56,73.53-48.95,118.17-48.95M183.11,0C81.98,0,0,81.98,0,183.11s81.98,183.11,183.11,183.11,183.11-81.98,183.11-183.11S284.24,0,183.11,0h0Z"/>
        <path d="M183.11,10c46.24,0,89.71,18.01,122.41,50.7,32.7,32.7,50.7,76.17,50.7,122.41s-18.01,89.71-50.7,122.41c-32.7,32.7-76.17,50.7-122.41,50.7s-89.71-18.01-122.41-50.7S10,229.35,10,183.11,28.01,93.4,60.7,60.7C93.4,28.01,136.87,10,183.11,10M183.11,0C81.98,0,0,81.98,0,183.11s81.98,183.11,183.11,183.11,183.11-81.98,183.11-183.11S284.24,0,183.11,0h0Z"/>
      </g>
      <g>
        <g>
          <path class="cls-2" d="M183.11,292.48c-60.31,0-109.37-49.06-109.37-109.37s49.06-109.37,109.37-109.37,109.37,49.06,109.37,109.37-49.06,109.37-109.37,109.37Z"/>
          <path class="cls-5" d="M183.11,81.74c55.9,0,101.37,45.47,101.37,101.37s-45.47,101.37-101.37,101.37-101.37-45.47-101.37-101.37,45.47-101.37,101.37-101.37M183.11,65.74c-64.82,0-117.37,52.55-117.37,117.37s52.55,117.37,117.37,117.37,117.37-52.55,117.37-117.37-52.55-117.37-117.37-117.37h0Z"/>
        </g>
        <g>
          <path class="cls-5" d="M183.11,287.08c-57.33,0-103.97-46.64-103.97-103.97s46.64-103.97,103.97-103.97,103.97,46.64,103.97,103.97-46.64,103.97-103.97,103.97Z"/>
          <path class="cls-1" d="M183.11,85.14c54.02,0,97.97,43.95,97.97,97.97s-43.95,97.97-97.97,97.97-97.97-43.95-97.97-97.97,43.95-97.97,97.97-97.97M183.11,73.14c-60.73,0-109.97,49.23-109.97,109.97s49.23,109.97,109.97,109.97,109.97-49.23,109.97-109.97-49.23-109.97-109.97-109.97h0Z"/>
        </g>
      </g>
    </g>
  </g>
</svg>