<?xml version="1.0" encoding="UTF-8"?>
<svg id="Layer_2" data-name="Layer 2" xmlns="http://www.w3.org/2000/svg" viewBox="0 0 80.26 151.78">
  <defs>
    <style>
      .cls-1 {
        fill: #ded655;
      }
    </style>
  </defs>
  <g id="Layer_3" data-name="Layer 3">
    <g>
      <path d="M4.61.78l74.83,73.17c1.09,1.06,1.09,2.82,0,3.88L4.61,151c-1.72,1.68-4.61.46-4.61-1.94l20-73.17L0,2.72C0,.32,2.89-.9,4.61.78Z"/>
      <g>
        <path class="cls-1" d="M22.64,104.96c.21.28.79.83.77.63l-.88-1.03.11.4Z"/>
        <path class="cls-1" d="M25,106.14c-.35-.57-1.03-1.52-1.96-2.33.8,1.03.39.67,1.36,1.88.02.2-.46-.15-.79-.52.21.28-.35-.07.19.58.85.63,1.03.51.59-.26.24.18.45.46.62.65Z"/>
        <path class="cls-1" d="M35.47,98.85l-.17-.06c.08.05.13.06.17.06Z"/>
        <path class="cls-1" d="M41.56,93.93c-.02.07.06.18.14.27-.02-.1-.05-.19-.14-.27Z"/>
        <path class="cls-1" d="M43.54,94.07c-.05-.01-.08,0-.12-.01.11.07.18.1.12.01Z"/>
        <path class="cls-1" d="M35.47,98.85l.44.16c-.3-.32-.3-.16-.44-.16Z"/>
        <path class="cls-1" d="M23.97,102.61c.02.08.08.19.17.33-.01-.07-.02-.13-.02-.18-.05-.05-.09-.1-.14-.16Z"/>
        <path class="cls-1" d="M33.77,102.04l-.04.05c.1.12.22.27.35.43l-.3-.47Z"/>
        <path class="cls-1" d="M32.03,104.03c.08,0-.71-.84-1.04-1.21.31.36.43.55.46.65.15.16.34.34.59.56Z"/>
        <path class="cls-1" d="M27.64,105.51l.06.16s-.03-.1-.06-.16Z"/>
        <path class="cls-1" d="M35.3,100.89c.12.12.23.22.3.28-.1-.1-.2-.19-.3-.28Z"/>
        <path class="cls-1" d="M22.98,50.88c.06-.06.09-.1.14-.15-.09.07-.15.13-.14.15Z"/>
        <path class="cls-1" d="M24.76,44.69h.07c.15-.17.3-.32.45-.47l-.53.47Z"/>
        <path class="cls-1" d="M46.31,93.41s-.01,0-.02,0c.05.14.06.1.02,0Z"/>
        <path class="cls-1" d="M59.34,72.29c-.86.59-1.89-.01-2.74.75.43-.2,2.37-.18,2.74-.75Z"/>
        <path class="cls-1" d="M24.13,102.67s.04-.07.07-.08c-.06,0-.08.03-.07.08Z"/>
        <path class="cls-1" d="M56.61,73.04h-.01s-.08.07-.08.07c.04-.03.06-.05.09-.07Z"/>
        <path class="cls-1" d="M49.84,89c-.15-.14-.27-.23-.39-.32.08.08.19.18.39.32Z"/>
        <path class="cls-1" d="M45.71,90.76l.18.04c-.1-.05-.15-.05-.18-.04Z"/>
        <path class="cls-1" d="M50.26,86.33c.1.02.23.12.17-.04-.04-.03-.08-.06-.11-.08.09.13.11.21-.06.12Z"/>
        <path class="cls-1" d="M51.87,84.74c-.07-.05-.13-.09-.19-.14,0,.03,0,.06,0,.09l.2.04Z"/>
        <path class="cls-1" d="M28.28,55.28c.19-.26.42-.54.64-.81-.54.61-.98.58-.64.81Z"/>
        <path class="cls-1" d="M24.42,103.07c-.19-.22-.28-.33-.3-.4,0,.03-.01.06-.01.1.11.13.23.24.31.3Z"/>
        <path class="cls-1" d="M44.02,79.81l.37-.13c-.15,0-.28.04-.37.13Z"/>
        <path class="cls-1" d="M39.98,66.49l-.15.04s.05.04.15-.04Z"/>
        <path class="cls-1" d="M45.04,78.81c.33.24.54.36.7.42-.05-.07-.09-.14-.18-.24l-.52-.18Z"/>
        <path class="cls-1" d="M28.93,54.46h0s0,0,0,0Z"/>
        <path class="cls-1" d="M25.34,54.75c.22.26,1.14-.94,1.8-1.51.59-.02-.64.92-1.08,1.57.46-.11,1.57-.96,1.66-.78-.16.19-.2.28-.45.47,1.03-.67.61.52,1.89-.34-.08.11-.16.21-.23.29.49-.57,1.02-1.13,1.41-1.51.13.09.87-.48.22.26-.05-.09-.33.19-.58.38l.41-.19c-.89,1.11-.5.2-1.23.94.55-.11,1.62-.69,1.52-.24-.93,1.02-.73-.06-1.36,1.04l.1-.64c-1.32,1.76-.05-.27-1.5,1.58.07.63.88-.12.95.51.62-.47.77-.84,1.38-1.31,1.46-.5-2.04,2.87-.39,1.91.74-.57,2-1.78,1.61-.87l-1.18,1.03c.23.44,1.76-1.42,1.38-.32-.49.38-.63.11-.71.29-.63,1.11.78-.48.96-.3l-.93,1.03c.51.2,1.61-.13,2.18.08-.31.27-.68.52-.88.91.99,0,.96,1.17.87,2.23l1.02-.67c.03.05-.3.46-.51.58-.13.51.54-.53.96-.78.17.05-.34.63-.66.82,1.04-.4,2.48-.63,1.93.63l-.32.19c-.07.61,2.02-1.45,1.5-.4l-.2.1c.23.95,1.65.81.85,2.54,1.29-1.15.05,1.12,1.77-.56-.49,1.18-.89,1.39-.97,2.43.05.2,1.24-.89,1.57-.91l-.87.9,1.13-.73-.94,1.18.37-.09c0-.11.27-.53.53-.78.63-.18-.05,1.18-.49,1.64l1.29-.22c-.36.35-.58.38-.88.54,1.19-.63-.87,1,.22.42.16-.24.54-.52.73-.69-.4.67-.1.97.35.97l-.65.58c.25.55,1.15.54,1.59,1,.12-.45,1.2-1.48,1.44-1.46l-.87,1c.66-.5.21-.5,1.09-1.04.06.28-.94,1.19-1.34,1.4l.53-.13c-.27.3-.46.4-.83.75.66-.51-.57,1.3.55.4l-.26.29c.45.45.97.33,1.39.64.81-.81.77-.49,1.53-1.04.02.53-.31,1.47.09,1.72.63-.18.75-.63,1.32-1.01-.71.76-.32,1.01-1.01,1.38.51.26.65.34,1.74.23.25-.36.31-.55.59-.77.21-.03-.1.51-.46.86l-.1.05c.41-.14.57,0,.6.28.01.26,0,.75-.25.99-.39.58-.9.93.07.36l-.1.06c.36-.18.74-.33,1.15-.46-.09.17-.76.35-1.3.73.86-.38.9-.25.81-.15-.07.12-.27.22.43.09-1.64.55-1.59.52-1.31.52.27-.01.8.05-.49.16l.96-.07c.98-.04-.53.06-.75.08.77-.04.86-.07,1.41-.08.24.03.39.08.44.12-.1.12-.7.22-1.29.21-.6,0-1.19-.11-1.48-.21-.17-.1,3.83,1.5,1.95.92-.42-.22-.85-.42-1.29-.62.75.4.61.51.5.55-.06.03-.12.04-.11.12,0,.04.02.1.06.18-.03.15-.03.32,0,.53-.18-.26-.46-.55-.39-.61-.83-.56-.58.5-.02,1.07-.17.04-.53-.49-.88-.72-.55-.27.5,1.25-.26.63-.12-.1-.18-.27-.21-.35.23.43-.53.35.35,1.07-.64-.13-.15.85-.82.57.75,1.03-.87,0,.33,1.32-1.27-1.34-1.5-.61-1.06.17-.33-.45-.55-.27-1.02-.89-.17.2-.1.62.59,1.26-1.89-1.24.54,1.95-1.63.12.13,1.25.08,2.24-.12,3.04-1.27-1.33.43-.67-.94-2.03.05,1.01.88,2.4.09,2.55-.3-.06-.49-.64-.67-.9.05,1.01-1.04.78-.76,1.91-.12-.12-.2-.3-.26-.44-.04.13-.38,0,.21.58l-.08-.24c.98.74,1.44,2.13,1.87,2.61-1.53-1.85-.84-.02-2.73-2.4.06.17.26.52.67.9-.2-.04-.45-.24-.81-.78.02.62.75,1.15.46,1.4-.28-.29-.34-.46-.64-.82.41.7.83,1.4.36,1.38-.16-.19-.4-.39-.33-.45-.31.47.8,2.16-.17,2.04-1.1-1.38-.55-.27-1.64-1.33l.08.55.61.44c-.22.18.37,1.15-.15.96l-.29-.6-.18.58.62.2c.34.76,1.37,1.35.8,1.32-.05-.17-.22.19-.95-.35h0c.24.44.49.91.08.78-.38-.31-1.14-1.23-1.4-1.44.79,1.01-.23.72.59,1.81-.18-.27-.74-.84-.86-.94l.64.82c-.33-.14-.45-.24-.88-.71-.42.14,1.44,1.29.52,1.03-.03-.09-.15-.18-.21-.35-.64.02-.2,1.11-.86,1.05-1.16-1,0-.53-1-1.35-.25.64.35,2.22-.33,2.38l.2.04c1.45,1.6-1.07-.45-.58.5-.06-.17-.77-.93-.61-.74-.54.04-.24.97-.21,1.9l-.33-.45c-.52-.18-.66.25-1.03.25.33.45.16.49.79,1-2.79-1.69.07,2.3-2.28.92.06-.06-.19-.49-.24-.45l-.08.8c.69.64.46.35,1.06.78.33.45.51.88.4.99-.24-.64-1.06-1.08-1.51-1.37.22.19.41.45.62.65-1.4-.97,1.28,1.39.18.89l-.33-.37c.06.3.41.87.18.89-.81-.73-.23-.49-.85-1.13-.13.22,1.09,1.82.17,1.2-.14-.29-.03-.4-.17-.69-1.07-.74-.86-.49-1.13-.51h.03s-.71-.11-.71-.11l.32.17c1.76,2.25-.09.81.91,2.44-.94-1.54-.66-.77-1.5-1.68-.32-.17-.7-.33-.91-.61.55.85-.78-.33.03.91-.29-.28-.18.12-.84-.62.03.4.53.45.86.82.66,1.25-1.82-.52-.93,1.21.18.89,1.05,1.91,1.19,2.71-.55-.35-.92-1.12-.92-1.12-.59-.24-.65-.04-.5.45-.21-.28-.45-.46-.81-.73-.06.21.92,1.12.33.88-.28-.35-.74-.89-.98-1.27.1.42.46,1.1.54,1.52-.53-.45-.63-.85-.89-1.23.03.4-.04.92.67,1.75l.39.16c-.03.1-.69-.64-.78-.83-.44-.77.49.05.78.32l.06.3c1.75,1.55.21-.73.54-.86l1.09,1.31-.74-1.24c.36.26,1.06.91,1.12,1.2.75.43-.27-.58.53-.05.12.09.17.15.2.22l-.19-.52c.22.29.86.83.59.75.98.41-.41-1.38.6-.57l.05.1c.01-.81-.83-.93-1.54-2.27l2.35,1.99-.83-.93c.07,0,.22-.02.55.35-.44-.76-.4-.36-.88-1.02,1,.61.19-.93,1.62.44-.59-.75-.71-.33-.95-1.01,1.55,1.46,0-.51.87,0,.71.84.13.6,1,1.12-1.19-1.44.65-.06.56-.47-1.03-1.06-.09-.78-.17-1.39.33.37,1.06.09,1.68.24l.17.18c-1-1.12-.55-1.16-.58-1.56.62.65.83.93,1.01,1.32l.17-.17c-.29-.38-.42-.62-.42-.85l.74.84c.19-.27-.46-1.4.36-1.15-.71-.76-2.27-1.84-2.44-2.65.41.39,1.09,1.07,1.17,1.31-.03-.08-.23-.43,0-.31l.54.8c.43.17-.48-.64-.31-.68.56.58.48.33.91.8.03.08-.33-.15-.15.12.22-.02.7.18,1.18.57-.33-.32-.76-.77-.74-.94.19-.27.75.61,1.18.78-.33-.45.22-.18-.62-1.05.07-.06.48.33.73.53-.25-.5.45-.65-.58-1.44l-.09-.03s0-.03-.02-.06h0s0,0,0,0c-.44-1.24,1.29-.31,1.32-1.06l.28.29c-.09-.56.33-.7-.11-1.48.07-.07.68.37.98.74-.03-.39-.33-.73.39-.51.31.68.5.38.18.55.47.02.98.43.45-.59.64.82,1.08.76.97.43l-.68-.37c.02-.23.19-.27.36-.31l.89,1.03c1.62.72-1.11-2.84,1.18-1.21-.54-.8-.72-.23-1.39-1.13.34-.08,1.93,1.09,2,1.02.82.25-1.11-1.69-.44-1.62-.38-.31-1.32-1.19-1.4-1.74.34-.08,1.68,1.19,1.82,1.6-.02.08-.16,0-.27-.12.05.19.11.43.56.72l-.31-.37c.45.25.71-.08,1.2.55-.16-.49-.48-.64-.78-.7.77.23.45-.41,1.06-.35-.23-.15-.67-.51-.62-.55.84.02-.46-.84-.32-1.27.68.37,1.17,1.31,1.03.59.52.19.93.88,1.14,1.23-.39-.92.92-.04,1.18-.06l.14.41c-.08-.25,0-.31.06-.37l-.75-.61c.2.04.27-.02.55.27-.36-.53-1.19-1.09-1.63-1.87.45.25-.04-.7.89.18-.64.02.94.88.8,1.31-.05-.16.02-.22.22-.18.11.09.17.2.2.28,1.12.5-.87-1.18-.51-1.49.46.56,1.04.9.98.74-.15.12-.91-.8-1.17-1.32.61.19-.06-.53.1-.59l-.31-.06c-.46-.56-.29-.6-.3-.91.41.39.13.41.36.53-.72-1.07,1.3.57.93-.27.45.25.96.96,1.29,1.11-.4-.92.97.43.71-.39-.76-.62-.61-.43-1.07-1.3l.03.93-.7-1.29c-.15.12.14.72-.06.68-.42-.7-.26-.51-.89-1.03,1.2.86-.23-.97.68-.47l1.68,1.73c1.07.45-.29-1.44.55-1.42l-.43-.17c-.61-.74.17-.35.03-.76.55.59.84.71,1.25,1.01-.42-.42.34-.26-.74-1.45l.93.57c.64-.02-1.21-2.02-.7-2.14.51.72,1.06.98,1.28,1.64.11-.1.31-.09-.07-.49.42.3-.46-1.07.18-.62-.2-.3-.77-.91-.61-.99.13.1.28.28.28.28-.28-.28-.19-.57-.92-1.11,2.09,1.47.81-1.04,2.6.21.05-.42.15-.89.33-1.14.15.19.28.29.18.27.82.24-1.43-1.83-.51-1.56,1.08.76.31.68.76.92,1.9,1.85.15-.66,1.46.23l.05.17c.2.12.28.11.3.02.04-.11.03-.31,0-.52-.06-.42-.19-.89.09-1.03,0,0,.16.17.31.26-.76-1.14-.69-1.83-.71-2.34.84.63.33.44,1.35.91.03-.24-1.56-.84-1.55-1.26.61.19,1.31.21,2.44.67l-.28.36c1.56.51.41-.47.82-.52l.61.29c.37-.65-1.32-1.23-.7-1.68l-.58-.1c-1.53-.72,1.23.04.15-.55l1.96.33c-.24-.31-1.2-1-1.32-1.31,1.37.33,1.71.85,2.27,1.29.23-.21.59-.74-.33-.96.12.1.51.27.12.3-1.32-.47-1.89-.79-1.53-1.1,2.72.23,2.75-.26,3.51-.66-.03-.21.16-.4,1.18-.55-1.19-.36-1.38-.71-1.48-1.16-.09-.43-.1-.95-.7-1.4-2.47.97-.35-.25-3.12.53-.35-.12-.37-.2-.21-.26.37-.33.71-.69,1.02-1.08.6-.42.77-.01,1.35-.23-.3-.56.9-.6,1.2-1.22-.83.43-1.47.35-1.43-.09-.23.31-.48.61-.73.89-.99-.04-.6-.39-.26-.79.35-.39.66-.82-.3-.84l.94-.17c-.79-.13-1.49-1.48-3.37-.52.16-.24.59-.77.89-.73-.16-.26-.47-.43-.82-.54-.2-.07-.32-.06-.46-.04l-.42.04c-.55.04-1.01.02-.77-.61l.46-.4c-.21.04-.96.66-.65.11.18-.17.46-.4.44-.47-.2.1-.99.52-.86.15l.58-.39c.08-1.04-1.9.47-2.59.38,1.25-1.28,1.28-2.07,1.3-2.46l.18-.17c-.4-.7-1.99.14-2.99.13,1.04-1.7-.52-1.64-.27-2.93-.15.31-.99.99-1.21,1.03.13-.38-1.2.56-.04-.59l.02.06c1.04-1.24.49-1.18.32-1.4l-1.54,1.51c1.68-2.73-2.13-.48-.45-2.75-.5.26-.65.11-1.14.38l.81-.82c-.13-.54-.2-.81-.81-1.02l.66-.51c-.19-.28-2.62,2.08-2.89,1.92l1.14-1.29c-.43-.38.21-1.87-1.29-1.16.18-.17.54-.52.66-.5-.16-.22.06-1.57-1.52.19,1.07-1.1-.32-.52-1.02-.26l.83-.78c-1.2.85-1.48,1.13-2.03,1.16.04-.17.58-.7.46-.41.21-.63-.91.61-.74-.07l.6-.43c-.15-.27-.41.02-1.12.51-.45.19-.2-.6.48-1.37-.47.42-1.17.9-1.09.57.25-.29.47-.42.57-.48.18-.9-1.45.42-.92-.61.26-.27.37-.42.43-.52.26.3.45.56.37.6.73-.75.63-1.1,1.82-1.96-.74.38-2.25,1.3-2.13.73.06-.08.12-.16.22-.29l.1-.06c.02-.12-.09-.1-.26-.02.05-.19.09-.33.03-.41.58-.64.06-.59-.02-.73-.79.83-.81.55-1.33,1.36.04-.08.12-.08.23-.04.04,0,.07,0,.13-.04-.02.02-.05.04-.08.06.1.05.21.13.34.22-.5.33-.93.58-.62,0-.57.46-1.16.93-1.45,1.16.96-1.29,1.26-2.21,1.91-2.95-.8.12-1.12-.5-2.84.82-.29.1.32-.55.52-.83.21-.1.25,0,.5-.2-.58.2-.74-.42-1.83.61.22-.73,1.11-.85.59-1.01l.37-.28c1-2.38-3.78,1.67-2.37-1.27-.08.19-.12.27-.28.46.1-1.81-2.65-.81-1.99-3.17.06-.54-.63.12-1.29.49l.81-.93-1.24.77c-1.08.4,1.5-2.76-.33-1.79l-.52.65c-.05-.27-.85-.15-.16-.8-.12.09-.65.56-.42.19l.44-.46-1.17.4c.02-.63,1.83-1.78,1.47-2.31-.34.01-1.78.88-2.02,1.24.05.09-.11.45-.55.92l-.39.09c-1.35,1.33-2.83,2.6-3.38,3.91l1.07-.57-.56.74-.26-.17c-.48.74.13.27.59-.02-.32.37-.52.65-.6.83l1.52-1.05c-.49.56-1.14.94-1.26,1.4.71-.48,1.05-1.3,1.63-1.5-.48.74-1,1.2-.34.82-.32.37-.57.56-.78.66.54-.29.52.16,1.29-.5-.61.89.63.23-.63,1.5.34-.27,1.21-.78,1.39-.72-1.72,1.32.36.53-1.31,2.12,1.51-1.22,1.18-.04,2.22-.53-.12.09-.37.29-.33.19.05.27-.31.73-.46,1.1,1.14-1.12,1.64-1.14,2.47-1.71-.88,1.29-1.43,1.22-2.4,2.34.89-.93,1.25-.59,1.93-1.42-.51.83-.19.46-1.04,1.48,1.42-1.4.38-.1,1.36-.86-.47.92-1.25,1.39-.59,1.19-.31.55-1.02.85-1.02.85ZM33.46,57.87s-.02.02-.02.02c-.07-.03-.13-.05-.16-.07.04.01.09.03.18.05ZM33.95,58.33c-.03-.09-.09-.17-.18-.24.26-.3.56-.57.6-.51-.21.16-.26.44-.42.75ZM38.48,51.66c.19-.04.06.14-.1.32-.05-.02-.12-.03-.23-.03-.03.03-.07.06-.11.09.16-.15.31-.29.43-.38Z"/>
        <path class="cls-1" d="M37.3,52.6s-.07.04-.09.03c-.05.08-.09.16-.13.23.09-.08.19-.16.28-.23l-.05-.03Z"/>
        <path class="cls-1" d="M35.27,98.79h.03s-.08-.04-.14-.09c.05.04.07.06.11.09Z"/>
        <polygon class="cls-1" points="39.05 66.37 39.25 66.17 39.03 66.31 39.05 66.37"/>
        <path class="cls-1" d="M29.88,98.56c-.08-.07-.16-.13-.24-.18.05.05.14.11.24.18Z"/>
        <path class="cls-1" d="M28.56,99.5l-.45-.13c.23.1.36.13.45.13Z"/>
        <path class="cls-1" d="M27.28,99.95c.14.15.23.26.33.37h0s-.33-.37-.33-.37Z"/>
        <path class="cls-1" d="M40.3,85.34s0-.04,0-.07c-.08-.24-.07-.12,0,.07Z"/>
        <path class="cls-1" d="M38.02,91.31c-.1-.19-.2-.38-.24-.52-.14,0-.21.05.24.52Z"/>
        <path class="cls-1" d="M43.98,79.82h.01s.02,0,.03-.01h-.04Z"/>
        <path class="cls-1" d="M37.98,90.62c-.23-.09-.26,0-.21.17.11,0,.27,0,.21-.17Z"/>
        <path class="cls-1" d="M23.12,103.3h-.08c.05.06.09.11.12.14l-.05-.14Z"/>
        <path class="cls-1" d="M23.16,103.44l.05.14s.03-.05-.05-.14Z"/>
        <path class="cls-1" d="M23.31,103.89l-.1-.3s-.1.05.1.3Z"/>
        <path class="cls-1" d="M24.65,102.54l-.28-.31c.05.07.14.17.28.31Z"/>
        <path class="cls-1" d="M24.92,102.11c-.15.01-.83-.43-.77-.13l.22.25c-.38-.5.96.46.55-.12Z"/>
        <path class="cls-1" d="M29.98,104.33l-.53.05c.36.27.84.62.78.83,1.3.58-.77-.63-.26-.88Z"/>
        <path class="cls-1" d="M31.34,103.9c-.02.3.45.46.62.64-.18-.39-.23-.48-.62-.64Z"/>
        <path class="cls-1" d="M37.98,97.41l.71.76c.02-.23-.28-.29-.71-.76Z"/>
        <polygon class="cls-1" points="35.48 92.33 34.91 91.98 35.52 92.72 35.48 92.33"/>
        <polygon class="cls-1" points="41.42 96.9 41.47 97.06 41.41 96.59 41.42 96.9"/>
        <path class="cls-1" d="M52.29,85.75l-.93-.88c.08.25,1.07,1.29.93.88Z"/>
        <path class="cls-1" d="M57.4,78.93c.78.13,1.47.03.88-.27-.27.14-.98.14-.88.27Z"/>
        <polygon class="cls-1" points="47.52 60.27 47.91 60.05 47.48 60.13 47.52 60.27"/>
      </g>
    </g>
  </g>
</svg>