<?xml version="1.0" encoding="UTF-8"?>
<svg id="Layer_2" xmlns="http://www.w3.org/2000/svg" version="1.1" viewBox="0 0 366.2 366.2">
  <!-- Generator: Adobe Illustrator 29.8.4, SVG Export Plug-In . SVG Version: 2.1.1 Build 6)  -->
  <defs>
    <style>
      .st0 {
        fill: #adcb25;
      }

      .st1 {
        fill: #c4d515;
      }

      .st2 {
        fill: #cdd90f;
      }

      .st3 {
        fill: #afcc23;
      }

      .st4 {
        fill: #c0d318;
      }

      .st5 {
        fill: #aecc24;
      }

      .st6 {
        fill: #e1e202;
      }

      .st7 {
        fill: #d0da0d;
      }

      .st8 {
        fill: #ceda0e;
      }

      .st9 {
        fill: #b1cd22;
      }

      .st10 {
        fill: #bad11c;
      }

      .st11 {
        fill: #bdd21a;
      }

      .st12 {
        fill: #fff;
      }

      .st13 {
        fill: #b3ce20;
      }

      .st14 {
        fill: #32312f;
      }

      .st15 {
        fill: #a7c928;
      }

      .st16 {
        fill: #c9d712;
      }

      .st17 {
        fill: #c8d713;
      }

      .st18 {
        fill: #b8d01d;
      }

      .st19 {
        fill: #c6d614;
      }

      .st20 {
        fill: #c5d614;
      }

      .st21 {
        fill: #d4dc0b;
      }

      .st22 {
        fill: #bed319;
      }

      .st23 {
        fill: #b2cd21;
      }

      .st24 {
        fill: #bcd11b;
      }

      .st25 {
        fill: #d9de07;
      }

      .st26 {
        fill: #e4e300;
      }

      .st27 {
        fill: #b9d01d;
      }

      .st28 {
        fill: #d8de08;
      }

      .st29 {
        fill: #d2db0c;
      }

      .st30 {
        fill: #dfe104;
      }

      .st31 {
        fill: #ccd810;
      }

      .st32 {
        fill: #d7dd09;
      }

      .st33 {
        fill: #c2d416;
      }

      .st34 {
        fill: #dcdf05;
      }

      .st35 {
        fill: #abca25;
      }

      .st36 {
        fill: #c1d417;
      }

      .st37 {
        fill: #e0e103;
      }

      .st38 {
        fill: #aaca26;
      }

      .st39 {
        fill: #cad811;
      }

      .st40 {
        fill: #b5ce1f;
      }

      .st41 {
        fill: #e3e201;
      }

      .st42 {
        fill: #d5dd0a;
      }

      .st43 {
        fill: #d1db0c;
      }

      .st44 {
        fill: #b6cf1e;
      }

      .st45 {
        fill: #a6c829;
      }

      .st46 {
        fill: #dde004;
      }

      .st47 {
        fill: #a9c927;
      }

      .st48 {
        fill: #dbdf06;
      }
    </style>
  </defs>
  <g id="Layer_3">
    <g>
      <g>
        <path class="st14" d="M183.1,16c44.6,0,86.6,17.4,118.2,48.9,31.6,31.6,49,73.5,49,118.2s-17.4,86.6-49,118.2-73.5,49-118.2,49-86.6-17.4-118.2-49c-31.6-31.6-49-73.5-49-118.2s17.4-86.6,49-118.2S138.5,16,183.1,16M183.1,0C82,0,0,82,0,183.1s82,183.1,183.1,183.1,183.1-82,183.1-183.1S284.2,0,183.1,0h0Z"/>
        <path d="M183.1,10c46.2,0,89.7,18,122.4,50.7,32.7,32.7,50.7,76.2,50.7,122.4s-18,89.7-50.7,122.4c-32.7,32.7-76.2,50.7-122.4,50.7s-89.7-18-122.4-50.7c-32.7-32.7-50.7-76.2-50.7-122.4S28,93.4,60.7,60.7C93.4,28,136.9,10,183.1,10M183.1,0C82,0,0,82,0,183.1s82,183.1,183.1,183.1,183.1-82,183.1-183.1S284.2,0,183.1,0h0Z"/>
      </g>
      <g>
        <g>
          <path class="st12" d="M183.1,292.5c-60.3,0-109.4-49.1-109.4-109.4s49.1-109.4,109.4-109.4,109.4,49.1,109.4,109.4-49.1,109.4-109.4,109.4h0Z"/>
          <path class="st14" d="M183.1,81.7c55.9,0,101.4,45.5,101.4,101.4s-45.5,101.4-101.4,101.4-101.4-45.5-101.4-101.4,45.5-101.4,101.4-101.4M183.1,65.7c-64.8,0-117.4,52.5-117.4,117.4s52.5,117.4,117.4,117.4,117.4-52.6,117.4-117.4-52.6-117.4-117.4-117.4h0Z"/>
        </g>
        <g>
          <path class="st14" d="M183.1,287.1c-57.3,0-104-46.6-104-104s46.6-104,104-104,104,46.6,104,104-46.6,104-104,104h0Z"/>
          <path d="M183.1,85.1c54,0,98,43.9,98,98s-43.9,98-98,98-98-43.9-98-98,43.9-98,98-98M183.1,73.1c-60.7,0-110,49.2-110,110s49.2,110,110,110,110-49.2,110-110-49.2-110-110-110h0Z"/>
        </g>
      </g>
    </g>
  </g>
  <g>
    <rect class="st45" x="309.4" y="193.4" width="28.1" height="5.1"/>
    <rect class="st15" x="320.1" y="196.7" width="5.1" height="28.1" transform="translate(75.1 506) rotate(-83.2)"/>
    <rect class="st47" x="317.5" y="210.8" width="5.1" height="28.1" transform="translate(25.9 482.6) rotate(-76.3)"/>
    <rect class="st38" x="313.4" y="224.2" width="5.1" height="28.1" transform="translate(-17.9 450.7) rotate(-69.5)"/>
    <rect class="st35" x="307.8" y="236.8" width="5.1" height="28.1" transform="translate(-54.6 412.3) rotate(-62.8)"/>
    <rect class="st0" x="300.9" y="248.6" width="5.1" height="28.1" transform="translate(-83.4 369.4) rotate(-56.3)"/>
    <rect class="st5" x="292.7" y="259.5" width="5.1" height="28.1" transform="translate(-104.1 324.3) rotate(-50.1)"/>
    <rect class="st3" x="283.3" y="269.5" width="5.1" height="28.1" transform="translate(-116.8 278.5) rotate(-44)"/>
    <rect class="st9" x="272.9" y="278.6" width="5.1" height="28.2" transform="translate(-122.1 233.5) rotate(-38.3)"/>
    <rect class="st23" x="261.6" y="286.7" width="5.1" height="28.2" transform="translate(-120.6 190.3) rotate(-32.7)"/>
    <rect class="st13" x="249.5" y="293.7" width="5.1" height="28.2" transform="translate(-113.1 149.8) rotate(-27.3)"/>
    <rect class="st40" x="236.6" y="299.6" width="5.1" height="28.2" transform="translate(-100.2 112.6) rotate(-22)"/>
    <rect class="st44" x="223.1" y="304.4" width="5.1" height="28.2" transform="translate(-82.7 79.2) rotate(-16.9)"/>
    <rect class="st18" x="209" y="307.9" width="5.1" height="28.2" transform="translate(-61.2 49.8) rotate(-11.8)"/>
    <rect class="st27" x="194.6" y="310.3" width="5.1" height="28.2" transform="translate(-36.2 25) rotate(-6.6)"/>
    <rect class="st10" x="179.8" y="311.3" width="5.1" height="28.2" transform="translate(-8.5 4.9) rotate(-1.5)"/>
    <rect class="st24" x="153.5" y="322.6" width="28.2" height="5.1" transform="translate(-169.2 467.7) rotate(-85.7)"/>
    <rect class="st11" x="139.2" y="320.7" width="28.2" height="5.1" transform="translate(-192.4 415.5) rotate(-79.6)"/>
    <rect class="st22" x="125.3" y="317.4" width="28.2" height="5.1" transform="translate(-206.9 363.1) rotate(-73.6)"/>
    <rect class="st4" x="112" y="312.7" width="28.2" height="5.1" transform="translate(-213.4 311.8) rotate(-67.6)"/>
    <rect class="st36" x="99.4" y="306.8" width="28.2" height="5.1" transform="translate(-212.6 262.8) rotate(-61.7)"/>
    <rect class="st33" x="87.5" y="299.6" width="28.3" height="5.1" transform="translate(-205.6 217.1) rotate(-55.9)"/>
    <rect class="st1" x="76.5" y="291.3" width="28.3" height="5.1" transform="translate(-193.1 175.4) rotate(-50.2)"/>
    <rect class="st20" x="66.3" y="281.9" width="28.3" height="5" transform="translate(-176.3 138) rotate(-44.5)"/>
    <rect class="st19" x="57.1" y="271.5" width="28.3" height="5" transform="translate(-156.1 105.2) rotate(-38.8)"/>
    <rect class="st17" x="48.9" y="260.3" width="28.3" height="5" transform="translate(-133.4 77.2) rotate(-33.1)"/>
    <rect class="st16" x="41.9" y="248.2" width="28.3" height="5" transform="translate(-109.1 53.9) rotate(-27.4)"/>
    <rect class="st39" x="36" y="235.4" width="28.3" height="5" transform="translate(-84.2 35.2) rotate(-21.6)"/>
    <rect class="st31" x="31.4" y="222" width="28.3" height="5" transform="translate(-59.4 20.9) rotate(-15.8)"/>
    <rect class="st2" x="28.2" y="207.9" width="28.3" height="5" transform="translate(-35.5 10.4) rotate(-9.9)"/>
    <rect class="st8" x="26.5" y="193.4" width="28.3" height="5" transform="translate(-13.4 3.3) rotate(-4)"/>
    <rect class="st7" x="37.9" y="166.8" width="5" height="28.3" transform="translate(-141.8 215.5) rotate(-88.2)"/>
    <rect class="st43" x="39" y="152" width="5" height="28.3" transform="translate(-128.5 186.3) rotate(-82.7)"/>
    <rect class="st29" x="41.6" y="137.5" width="5" height="28.4" transform="translate(-113.6 161.4) rotate(-77.3)"/>
    <rect class="st21" x="45.4" y="123.6" width="5" height="28.4" transform="translate(-97.9 140.6) rotate(-71.9)"/>
    <rect class="st42" x="50.5" y="110.2" width="5" height="28.4" transform="translate(-82.2 123.4) rotate(-66.5)"/>
    <rect class="st32" x="56.7" y="97.5" width="5" height="28.4" transform="translate(-67.2 109.5) rotate(-61.1)"/>
    <rect class="st28" x="64.1" y="85.6" width="5" height="28.4" transform="translate(-53.3 98.3) rotate(-55.6)"/>
    <rect class="st25" x="72.5" y="74.5" width="5" height="28.4" transform="translate(-41.2 89.1) rotate(-50)"/>
    <rect class="st48" x="81.9" y="64.4" width="5" height="28.4" transform="translate(-30.9 81.2) rotate(-44.2)"/>
    <rect class="st34" x="92.2" y="55.3" width="5" height="28.4" transform="translate(-22.7 73.8) rotate(-38.4)"/>
    <rect class="st46" x="103.4" y="47.4" width="5" height="28.4" transform="translate(-16.5 66.1) rotate(-32.3)"/>
    <rect class="st30" x="115.4" y="40.6" width="5" height="28.4" transform="translate(-12.1 57.4) rotate(-26.1)"/>
    <rect class="st37" x="128.2" y="35.3" width="5" height="28.4" transform="translate(-9 46.9) rotate(-19.7)"/>
    <rect class="st6" x="141.6" y="31.3" width="5" height="28.4" transform="translate(-6.6 34) rotate(-13.2)"/>
    <rect class="st41" x="155.7" y="28.9" width="5" height="28.4" transform="translate(-3.9 18.4) rotate(-6.6)"/>
    <rect class="st26" x="170.3" y="28" width="5" height="28.5"/>
  </g>
</svg>