<?xml version="1.0" encoding="UTF-8" standalone="no"?>
<!DOCTYPE svg PUBLIC "-//W3C//DTD SVG 1.1//EN" "http://www.w3.org/Graphics/SVG/1.1/DTD/svg11.dtd">
<svg width="100%" height="100%" viewBox="0 0 165 70" version="1.1" xmlns="http://www.w3.org/2000/svg" xmlns:xlink="http://www.w3.org/1999/xlink" xml:space="preserve" xmlns:serif="http://www.serif.com/" style="fill-rule:evenodd;clip-rule:evenodd;stroke-linejoin:round;stroke-miterlimit:2;">
    <g transform="matrix(-1.00457,-1.23024e-16,1.20511e-16,-0.984046,1850.22,1558.41)">
        <g>
            <path d="M1805.52,1512.54C1806.23,1512.54 1806.92,1512.83 1807.42,1513.34C1811.82,1517.78 1833.26,1539.47 1839.86,1546.14C1840.38,1546.66 1840.66,1547.37 1840.66,1548.11C1840.66,1548.84 1840.38,1549.55 1839.86,1550.07C1833.26,1556.75 1811.82,1578.43 1807.42,1582.87C1806.92,1583.39 1806.23,1583.67 1805.52,1583.67L1680.26,1583.67C1679.54,1583.67 1678.85,1583.38 1678.35,1582.87C1677.84,1582.35 1677.55,1581.64 1677.55,1580.91L1677.55,1515.3C1677.55,1514.57 1677.84,1513.87 1678.35,1513.35C1678.85,1512.83 1679.54,1512.54 1680.26,1512.54L1805.52,1512.54Z" style="fill:rgb(220,214,75);"/>
        </g>
    </g>
</svg>
