<?xml version="1.0" encoding="UTF-8" standalone="no"?>
<!DOCTYPE svg PUBLIC "-//W3C//DTD SVG 1.1//EN" "http://www.w3.org/Graphics/SVG/1.1/DTD/svg11.dtd">
<svg width="100%" height="100%" viewBox="0 0 313 400" version="1.1" xmlns="http://www.w3.org/2000/svg" xmlns:xlink="http://www.w3.org/1999/xlink" xml:space="preserve" xmlns:serif="http://www.serif.com/" style="fill-rule:evenodd;clip-rule:evenodd;stroke-linejoin:round;stroke-miterlimit:2;">
    <g transform="matrix(0.444417,0,0,0.444417,-373.709,-559.787)">
        <g>
            <g transform="matrix(2.25014,0,0,2.25014,840.897,1259.6)">
                <path d="M156.369,201.666C156.369,201.666 158.943,181.679 165.464,171.439C179.182,149.896 211.499,144.396 224.762,151.292C238.024,158.189 242.816,183.551 240.163,199.997C237.511,216.443 156.5,273.377 156.5,273.377C156.5,273.377 72.909,209.14 73.44,193.753C73.97,178.365 75.524,153.932 93.561,149.158C111.598,144.383 141.905,158.686 149.718,170.34C156.3,180.157 156.369,201.666 156.369,201.666Z" style="fill:rgb(44,44,44);"/>
            </g>
            <path d="M1193,1259.59L1251.9,1459.6C1251.9,1459.6 1290.92,1464.48 1315.32,1479.12C1339.71,1493.75 1375.08,1515.7 1375.08,1515.7C1375.08,1515.7 1416.54,1501.07 1436.06,1485.21C1455.57,1469.36 1487.28,1427.89 1487.28,1427.89C1487.28,1427.89 1529.96,1542.54 1531.18,1621.81C1532.4,1701.08 1511.67,1821.82 1511.67,1821.82L1436.06,1836.46L1517.77,1898.65L1544.6,2012.08L1416.54,1901.09L1421.42,1948.66L1342.15,1935.24L1325.07,2054.76L1272.63,2020.61L1193,2159.65L1111.64,2021.83L1059.2,2052.32L1047.01,1935.24L967.734,1953.54L971.393,1904.75C971.393,1904.75 928.707,1930.36 911.633,1947.44C894.559,1964.51 840.897,2014.52 840.897,2014.52L868.947,1891.34L949.44,1834.02L879.924,1821.82C879.924,1821.82 848.214,1735.23 850.654,1646.2C853.093,1557.17 896.998,1427.89 896.998,1427.89C896.998,1427.89 926.268,1469.36 944.562,1481.56C962.856,1493.75 1009.2,1513.27 1009.2,1513.27C1009.2,1513.27 1034.81,1486.43 1064.08,1479.12C1093.35,1471.8 1134.82,1459.6 1134.82,1459.6L1193,1259.59ZM1193,1858.47C1193,1858.47 1261.51,1820.01 1283.28,1796.16C1307,1770.17 1359.03,1726.81 1362.26,1709.62C1367,1684.37 1364.1,1630.35 1347.03,1618.15C1329.95,1605.95 1294.58,1608.39 1273.85,1614.49C1253.12,1620.59 1222.63,1644.98 1212.87,1666.93C1203.11,1688.89 1193,1804.75 1193,1804.75C1193,1804.75 1187.26,1690.11 1173.84,1664.49C1160.43,1638.88 1123.84,1618.15 1099.45,1613.27C1075.06,1608.39 1061.64,1607.17 1045.79,1615.71C1029.93,1624.25 1017.85,1655.07 1023.84,1691.33C1028.19,1717.72 1086.89,1769.7 1102.75,1786.78C1118.6,1803.85 1193,1858.47 1193,1858.47Z" style="fill:white;"/>
        </g>
    </g>
</svg>
