<?xml version="1.0" encoding="UTF-8" standalone="no"?>
<!DOCTYPE svg PUBLIC "-//W3C//DTD SVG 1.1//EN" "http://www.w3.org/Graphics/SVG/1.1/DTD/svg11.dtd">
<svg width="100%" height="100%" viewBox="0 0 300 300" version="1.1" xmlns="http://www.w3.org/2000/svg" xmlns:xlink="http://www.w3.org/1999/xlink" xml:space="preserve" xmlns:serif="http://www.serif.com/" style="fill-rule:evenodd;clip-rule:evenodd;stroke-linejoin:round;stroke-miterlimit:2;">
    <g transform="matrix(1,0,0,1,-837.02,-1255.58)">
        <g transform="matrix(2.87262,0,0,2.94328,-56.4199,-3302.4)">
            <g>
                <path d="M353.503,1600.22L350.903,1614.37L342.653,1614.37L347.203,1589.12L356.053,1579.87L367.553,1581.87L364.453,1588.92L354.353,1587.12L355.103,1591.02L354.453,1594.52L362.453,1594.52L360.753,1600.22L353.503,1600.22Z" style="fill:rgb(243,243,243);fill-rule:nonzero;"/>
                <path d="M379.053,1615.12L372.253,1614.07L370.853,1608.57L371.053,1604.12L370.903,1604.07L369.503,1608.07L366.353,1615.12L360.403,1614.07L363.853,1607.27L367.153,1607.92L369.503,1602.87L367.903,1597.02L364.453,1596.37L367.903,1590.37L375.053,1591.72L376.103,1596.22L376.053,1600.42L376.253,1600.47L377.253,1597.72L380.553,1590.37L385.953,1591.42L382.603,1598.07L379.553,1597.52L377.403,1601.62L379.153,1608.12L382.653,1608.57L379.053,1615.12Z" style="fill:rgb(243,243,243);fill-rule:nonzero;"/>
                <g transform="matrix(0.0762229,0,0,0.0693312,268.708,1481.51)">
                    <path d="M1240.16,967.689C1337.76,1249.55 1570.09,1450.76 1925.22,1702.76C1584.45,1925.48 1390.85,2097.08 1240.16,2437.83C1087.53,2134.24 868.357,1819.85 555.099,1702.76C888.158,1594.62 1154.78,1245.8 1240.16,967.689ZM1243.61,1133.35C1138.1,1352.19 946.215,1581.57 711.583,1706.03C934.211,1836.19 1106.47,2061.14 1237.56,2295.25C1372.97,2040.29 1544.93,1881.75 1811.6,1700.71C1546.14,1507.23 1355.9,1337.05 1243.61,1133.35Z" style="fill:rgb(243,243,243);"/>
                </g>
            </g>
        </g>
    </g>
</svg>
