<?xml version="1.0" encoding="UTF-8" standalone="no"?>
<!DOCTYPE svg PUBLIC "-//W3C//DTD SVG 1.1//EN" "http://www.w3.org/Graphics/SVG/1.1/DTD/svg11.dtd">
<svg width="100%" height="100%" viewBox="0 0 215 70" version="1.1" xmlns="http://www.w3.org/2000/svg" xmlns:xlink="http://www.w3.org/1999/xlink" xml:space="preserve" xmlns:serif="http://www.serif.com/" style="fill-rule:evenodd;clip-rule:evenodd;stroke-linejoin:round;stroke-miterlimit:2;">
    <g transform="matrix(1,0,0,1,-806.755,-1860.79)">
        <g transform="matrix(0.289991,0,0,0.174186,541.673,1705.15)">
            <path d="M1138.23,973.429C1139.38,972.608 1140.28,971.04 1141.44,970.22C1142.16,969.706 1142.21,970.108 1151.24,967.967C1244.08,945.944 1382.88,944.077 1491.12,969.93C1491.59,970.042 1522.4,977.769 1553.9,992.13C1586.42,1006.96 1649.91,1041.5 1655.18,1112.5C1661,1190.86 1588.1,1231.42 1562.39,1244.76C1512.83,1270.47 1449.34,1282.32 1439.36,1284.18C1319.43,1306.58 1228.66,1290.21 1172.26,1279.79C1099.91,1266.42 1059.35,1250.3 1049.7,1246.47C929.469,1198.69 916.441,1147.98 914.364,1121.5C912.981,1103.86 917.059,1086.99 928.355,1064.04C944.055,1032.13 970.601,1003.48 996.692,985.24C1043.27,952.677 1098.93,933.994 1135.17,923.649C1135.58,923.533 1174.47,912.842 1236.69,903.725C1292.45,895.553 1333.27,893.482 1333.32,893.519C1333.89,893.991 1334.18,895.1 1334.76,895.572C1333.89,896.032 1333.34,897.504 1332.48,897.964C1331.64,898.408 1242.56,906.924 1142.91,947.603C1126.59,954.266 1055.64,979.623 1001.64,1028.48C993.602,1035.76 958.654,1063.79 944.189,1108.3C943.018,1111.91 939.359,1121.95 959.106,1142.36C993.483,1177.9 1066.25,1201.41 1079.4,1206.08C1144.7,1229.24 1198.67,1237.48 1209.14,1239.08C1243.82,1244.37 1335.57,1257.84 1450.44,1232.38C1559.63,1208.18 1631.65,1161.33 1627.1,1115.05C1626.43,1108.18 1621.68,1049.2 1489.18,1004.98C1473.5,999.75 1405.15,972.828 1291.08,966.279C1273.27,965.257 1211.75,961.7 1149.67,973.291C1147.13,973.765 1141.9,975.012 1141.88,975.009C1140.63,974.754 1139.48,973.683 1138.23,973.429Z" style="fill:rgb(34,34,34);fill-opacity:0.88;"/>
        </g>
    </g>
</svg>
