<?xml version="1.0" encoding="UTF-8"?>
<svg id="Layer_2" data-name="Layer 2" xmlns="http://www.w3.org/2000/svg" viewBox="0 0 299.99 313.81">
  <defs>
    <style>
      .cls-1 {
        font-size: 26.81px;
      }

      .cls-1, .cls-2, .cls-3 {
        fill: #231f20;
        font-family: EskapadeFraktur-Black, 'Eskapade Fraktur';
        font-weight: 800;
      }

      .cls-2 {
        font-size: 26.81px;
      }

      .cls-3 {
        font-size: 26.81px;
      }

      .cls-4 {
        fill: none;
        stroke: #231f20;
        stroke-miterlimit: 10;
      }
    </style>
  </defs>
  <g id="Layer_1-2" data-name="Layer 1">
    <g>
      <g>
        <circle class="cls-4" cx="150.28" cy="101.26" r="18.39"/>
        <circle class="cls-4" cx="150.28" cy="101.26" r="14.43"/>
      </g>
      <g>
        <circle class="cls-4" cx="216.69" cy="216.28" r="18.39"/>
        <circle class="cls-4" cx="216.69" cy="216.28" r="14.43"/>
      </g>
      <g>
        <circle class="cls-4" cx="83.88" cy="216.28" r="18.39"/>
        <circle class="cls-4" cx="83.88" cy="216.28" r="14.43"/>
      </g>
      <text class="cls-1" transform="translate(91.5 268.5) rotate(-143.15)"><tspan x="0" y="0">D</tspan></text>
      <text class="cls-1" transform="translate(78.81 259.07) rotate(-134.65)"><tspan x="0" y="0">A</tspan></text>
      <text class="cls-1" transform="translate(67.04 247.74) rotate(-124.18)"><tspan x="0" y="0">M</tspan></text>
      <text class="cls-1" transform="translate(53.91 227.92) rotate(-113.73)"><tspan x="0" y="0">A</tspan></text>
      <text class="cls-1" transform="translate(47.33 212.82) rotate(-105.82)"><tspan x="0" y="0">G</tspan></text>
      <text class="cls-1" transform="translate(43.6 199.54) rotate(-99.13)"><tspan x="0" y="0">E</tspan></text>
      <circle class="cls-4" cx="150.28" cy="176.32" r="133.72"/>
      <text class="cls-3" transform="translate(259.52 180.82) rotate(96.65)"><tspan x="0" y="0">D</tspan></text>
      <text class="cls-3" transform="translate(257.75 196.51) rotate(105.11)"><tspan x="0" y="0">U</tspan></text>
      <text class="cls-3" transform="translate(253.53 212.22) rotate(113.51)"><tspan x="0" y="0">R</tspan></text>
      <text class="cls-3" transform="translate(247.31 226.69) rotate(121.92)"><tspan x="0" y="0">A</tspan></text>
      <text class="cls-3" transform="translate(238.87 240.11) rotate(128.94)"><tspan x="0" y="0">T</tspan></text>
      <text class="cls-3" transform="translate(231.39 249.27) rotate(134.26)"><tspan x="0" y="0">I</tspan></text>
      <text class="cls-3" transform="translate(225.63 255.47) rotate(140.42)"><tspan x="0" y="0">O</tspan></text>
      <text class="cls-3" transform="translate(214.22 265.03) rotate(148.71)"><tspan x="0" y="0">N</tspan></text>
      <text class="cls-2" transform="translate(101.98 78.25) rotate(-21.91)"><tspan x="0" y="0">D</tspan></text>
      <text class="cls-2" transform="translate(116.73 72.42) rotate(-14.67)"><tspan x="0" y="0">E</tspan></text>
      <text class="cls-2" transform="translate(127.98 69.47) rotate(-8.69)"><tspan x="0" y="0">L</tspan></text>
      <text class="cls-2" transform="translate(139.08 67.81) rotate(-3.52)"><tspan x="0" y="0">I</tspan></text>
      <text class="cls-2" transform="translate(147.12 67.13) rotate(2.22)"><tspan x="0" y="0">V</tspan></text>
      <text class="cls-2" transform="translate(160.9 67.68) rotate(8.72)"><tspan x="0" y="0">E</tspan></text>
      <text class="cls-2" transform="translate(172.34 69.27) rotate(15.88)"><tspan x="0" y="0">R</tspan></text>
      <text class="cls-2" transform="translate(186.67 73.26) rotate(23.56)"><tspan x="0" y="0">Y</tspan></text>
      <circle class="cls-4" cx="150.28" cy="176.32" r="102.68"/>
      <circle class="cls-4" cx="150.28" cy="178.37" r="23.47"/>
      <circle class="cls-4" cx="150.28" cy="176.32" r="136.99"/>
      <circle class="cls-4" cx="150.28" cy="176.32" r="99.84"/>
      <line class="cls-4" x1="159.48" y1="117.18" x2="207.5" y2="200.36"/>
      <line class="cls-4" x1="141.09" y1="117.18" x2="93.07" y2="200.36"/>
      <line class="cls-4" x1="198.3" y1="216.28" x2="102.27" y2="216.28"/>
    </g>
  </g>
</svg>