<?xml version="1.0" encoding="UTF-8"?>
<svg id="Layer_2" data-name="Layer 2" xmlns="http://www.w3.org/2000/svg" viewBox="0 0 332.38 59.55">
  <defs>
    <style>
      .cls-1 {
        fill: #fff;
        fill-rule: evenodd;
      }

      .cls-2 {
        fill: #636b79;
      }
    </style>
  </defs>
  <g id="Layer_2-2" data-name="Layer 2">
    <g id="Layer_1-2" data-name="Layer 1-2">
      <g>
        <polygon class="cls-1" points="301.43 59.55 0 59.55 0 0 301.43 0 332.38 29.77 301.43 59.55"/>
        <g>
          <path class="cls-2" d="M3.8,29.69c-1.11.13.6.51-.72.23.15-.24.36-.41.72-.23Z"/>
          <path class="cls-2" d="M301.12,30.03c-3.56,1.53-8.26-.02-12.17.96-.46.07.12-.84-.91-.63-3.79,1.18-9.75.48-14.36-.44l.28-.24c-.88-.17-1.95.61-2.88.5,0-.16.3-.22.08-.44-.23.47-1.68.22-2.08.57-.37-.19-.33-.56-.81-.77l-.53.54c-1.48,1.28-3.6-.09-5.62.57.1-.12.3-.22.14-.34-3.24.78-7.3.63-10.93.92.14-.19.28-.54.07-.75-.18.57-1.3.71-2.27.82-.44-.58-1.67.53-2.81.21l.1-.13c-.84.61-1.25-.35-1.93.38l-.53-.46c-.37.82-1.22-.42-1.92,0l.02.17c-.66.2-1-.21-1.61-.07l-.06-.1c-1.43.22-2.26-.24-2.22.4-.5-.51,1.38-.23.6-.98-4.69.66-9.53.53-14.25.54-.54-.26-.88-.34-1-.58-.47.13-1.78.12-2.21.44.16-.01-.3-.33-.55-.36-.86-.24-.94.7-1.88.42.38-.17.5-.38.38-.62-.81.5-1.88.42-2.83.58.15-.11.38-.17.34-.37-1.04.57-1.9-.12-2.81.24l.34-.37c-1.47-.45-.43.77-1.7.51.3-.12.2-.26.25-.41-1.18.67-3.1.45-4.28.68.07-.05.05-.15.05-.15-1.29.08-2.63-.13-4.05.17-.51-.17.17-.9-1.19-.77.05.74-2.31.31-1.51,1.15-1.16-.12-3-.4-3.78-.15.52-.28-.57-.91.4-.97l-.73-.45c.11-.3.75.1.52-.28-.49.03-1.9.32-2.33.2-.9.46-1.72,1.3-3.18,1.4.68-.29-.39-.82.08-.95l-2.03,1.42c-.48.03-.11-.59-.8-.39.04.2-.27.32-.48.48-.18-.08-2.01.19-2.22-.54-.21-.29.79-.15.25-.41-.89,0-.93.26-1.83.27l-.02-.1c-.59-.11-1.74.31-1.1.72.41.02-.16-.44.45-.23-.42.43-1.45.54-2.35.55.3-.12.27-.31.39-.52-1.2.58-2.47.76-3.81,1-.02.35.5-.63.7-.45-1.72-.48-3.55.68-4.98-.02.23-.06.13.49.11.4-.83-.04-.79-.55-1.33-.36-.05-.3-.68.09-1.23.18-.29.21-.14-.14.34-.18-.77.25-3.87.71-5.66.27.03.2-1.1.72-1.51.7l.16-.46c-.37-.27-1.38.04-1.45-.35-.88.56,3.38-.47,2.19-.04-.31-.38-1.65.73-1.4.11-.83.02-1.63.53-2.41.1.23.07.67-.63,0-.6-1.17.08-.33.22-1.28.37l-.6.19c-.04.44-1.05-.06-.61.44-.14-.37-1.71.23-1.58-.51l.16-.58c-.51.04-.83.61-1.23.87-.07-.05-.2-.17-.17-.27-.08.89-1.21-.07-1.81.61-1.06-.31-2.7-.03-3.21-.58-.82.27-1.56.59-2.5.4.19-.08.44-.11.49-.3-.59-.26-.73-.03-1.26.12.12-.13-1.17-.52-1.82-.84-.81.27-.53.75-.62,1.04-.74-.88-2.29.57-3.23-.23.28-.12,1.19-.43.51-.65-.74-.88-1.5.65-2.7.23l.29.73c-.53-.45-1.76.42-1.64-.32-.4.26-1.41-.24-1.28.47-1.97-.6-4.79.36-5.99-.91-.28.12-.99,0-.84.36.47.4.65-.28.83,0-.25.02-.31.22-.33.31-.61-.16-1.09-.21-.52-.8-1.36-.44-1.4,1.21-3.14.93.08-.29-.05-.41-.56-.36l-.96.5c-1.12-.12-.64-.67-.66-1.17-.6.09-1.33.06-1.6.43l-.73-.63c.53.45-.49.3-.77.42l.28-.12c-.11-.21-.8-.08-1.15-.02.08.31.79.43,1.17.52-.31.22-.78.17-1.19.43.13-.49-.98-.35-1.45-.4-.55-.11-.62.44-.77.42-.01-.25-.89-.04-.47-.4.19-.08.43.25.73.02-.36-.19-.32-.63-1.06-.31-.56.24.14.96-.92.66.28-.12.33-.32.55-.49l-1-.25-.04.44c-.13-.11-.04-.15-.1-.21-.3.47-1.53.14-1.75.67-.5.05-1.06-.31-1.54-.36l.09-.04c-.59-.26-1.37-.09-1.86.21l.03-.1c-.32-.04-1.08.04-1.48.3-.81-.34-.27-1.68-1.17-1.12-.82.02-1.29.82-.96,1.1-1.48-.3-3.16.43-4.53-.27-.21.18-.08.29-.52.4-2.17-.18-4.59.53-6.32-.35.63-.19.04-.44.03-.7-.52.4-.62-.41-.81.27.05.4,0,.6.61.76-1.3.22-3.27.22-3.99-.16.36.19.08.31-.2.43.09-.64-.86-.74-1.59-.51l-.1.39-.47-.4c-.28.12-.31.82-1.03.44-.04-.15-.08-.3-.21-.42-.75.32-1.8.86-2.62.53l-.66-.57c-.35.06-.93.41-.32.57-1.39-.34-2.28-.39-2.72-.88-2.39,1.2-5.85,1.25-8.63,1.17l.08-.29c-.75-.27-.39.51-.91.31.24-.28-.57-.61.02-.95-1.07-.31-1.37.51-2.07.64-.11.38.56-.25.42.24-.12.14-1.48-.3-1.64.28-.27-.23-.06-.66.08-.89l-.65.28c-.8-.68,1.82-1.21.98-2.05l-.6.09c-.57-.61,1.59-.69.08-.9-.65.29-1.21,1.13-.63,1.39-1.36.16-.63,1.39-2.09,1.34-.4-.34,1.17-.08.89-.56-.69-.47-1.38.26-2,.1.68.22.11.81-.34.91-.75-.27.48-.55-.57-.61-.17.34-1.14.59-.31.82-.38.76-1.1-.21-1.67.38-.34-.53,1.09-1.24-.07-1.51.18.52-1.43.7-.82,1.47-.45-.15-.5-.56-.17-.87-.65-.32-1.57.94-1.79-.08l-.22.53c-.2-.17-.49-.3-.83-.59-.57,0-1.84.71-1.79-.08-.18.08-1.49.05-.98.6.81.34.93-.4,1.38.34-.57-.61-1.17.08-1.64.28l-.08-.31c-.28.12-.92.05-1.1.39.21-.18.1-.39-.12-.46l-.29.47c-1.14.23-.27-.82-1.37-.69l.84-.36c-.18.08-.56-.36-1.09-.21-.21.43-.59.94-.77,1.27-.62.19-.28-.48-.89-.04l.8-.52c.12-.14-.54-.71-1.37-.7-.53.15-1.36.77-.52,1-.42,0-1-.25-.67-.57-.94.15.12.46-.69.73-.33-.28-1.37-.69-2-1.11l.85-.72h-.57c.73-.58-.37-.45.04-1.05-.39-.1-.85.11-1.23.27,1.13.97-1.27,1.32-.94,2.21-1.55.24-.97-2.15-2.58-.77.26.23-.5.9.48.65-.96-.1-.65.89-1.79.52.84-.36-.9-.9.31-1.42-.08.29.68.22.86.14-.4-.34.08-.89-.9-.89-.6.09-1.43.1-1.31.56.03.51.92-.05.53.46-1.2.18-1.4-.59-1.89.3.76-.07.95.45.93.8l-.88.21.17-.34c-1.41-.24-.42.61-1.78.52l-.64-.66c.33-.57,1.99.25,1.75-.68-.89-.04-1.18.43-2.02.19.19-.08.44-.1.63-.19-.32-.03-.64-1.26-1.9-.54-.65.28-.17.33-.19.68-1.43.11-1.85.46-2.77.52.19-.68-1.62-.07-.61-.76.47.4,2.53.36,3.04-.29-.52-.81,1.12.11,1.43-.7-1.15-.02-1.09-.81-1.27-1.33-.32-.04-.63.18-.82.26-.13.49.28.48.3.99-1.28-.13-2.51.14-3.21.62-.43-.24-.29-.73.21-.78-1.52.14-3.14.08-4.59-.07.93.8-1.61.19-.97.85.77.18,1.44.75,1.01,1.11-.48-.05.02-.35-.19-.52-.62.44-.96-.7-1.56,0,1.39-.26.27-.97.53-1.6-1,.35.04-.44-.95-.44-1,.35-2.22.62-3.33.76-1.39-.59-3.53,0-4.77,0-.65-.32-.21-1.02-.92-1.15-.83.01.62.76-.61.44l.12-.14c-.37.16-2.25-.48-2.61.54l.38-.77c-.23-.07-.44.11-.63.19,0-.25-.28-.48.1-.64-.76-.53-1.59.08-2.41.11l.53.45c-1.41.36-2.35-.09-3.72.07l.04-.44-.81.27c.2-.43-.55-.71-.97-.35l2.11-1.09c.59.26-.64.54-.27.97.31.38,1.57.26,1.78-.17-.48-.05-.51.05-.88.21-.16-.62.57-.59.94-1-.25.02-.61-.16-.67.03.5-.3,1-.35,1.83-.36-.56.24.3.38.09.56.07-.54.86-.71,1.88-.56.73.63,1.92-.4,3.11-.23-.48.55-1.09.99-1.82,1.21.74.28.83-.02,1.57.26.36-.41.62-1.04,1.59-1.29l.05.41c.88-.21.88-.81,2-.7,1.92.2,3.89.2,5.36.25l.06.4c.81-.87,2.72-.32,3.81-.71,1.87.39,4.05-.39,5.01.31,3.29-.31,6.17-.62,9.58-.47l-.57.59c.61-.43.4.34,1,.25-.69-.47.83-.61,1.25-.97,1.52.46,3.47-.04,4.82-.46l.05.41c1.36-.76,2.99-.09,4.68.03.19.17.5.55,1.01.5.92-.66,1.4-.61,2.75-1.02.98,0,2.58.16,3.58.42,3.71-.92,7.49-.33,11.34-.89l.28.48c3.73-1.02,8.33-.09,11.52-.62l-.31.82c1,.25,2.28-.21,2.02-.79,1,.25,2.5-.4,3.14.27,1.02.15,1.25-.38,2.1-.49,2.05.31,2.81.24,4.74.09l-.48-.05c-.21.18-.23.53.25.58.72-.23,2.65.22,1.93-.75,2.06.56,4.81-.46,6.82.3-.17-.27.34-.32.55-.5,1.81-.01,3.71.53,5.16.08.29.13-.46.45.28.48.44-.1.01-.35.55-.5,2.93-.5,5.94.51,8.61.38,4.74-.51,9.69-.25,14.23-.34l-.05.2c1.52-.75,3.57.76,4.78-.36.36.19,1.37.09,1.11.46,1.21-.53,3.39.5,5.14-.17-.16-.02-.25.02-.44.11,1.77.43,3.33-.16,5.2.23-.19.08-.53.15-.59.34.72.37,1.71-.82,2.1.12.41,0,.29-.47.04-.45,4.09.37,8.45-.24,12.71-.45,3.05.56.19,1.59,2.59.88.2.18.14-.36.18-.17.93-.26,1.45,1.05,2.1.56-.27-.58.43-.32.45-.67,1.86.38,2.24.9,3.71.46l-.11.3c1.72-.86,3.72-.4,5.18-1.39,9.51-.18,18.63-.73,27.9-.84,9.17.19,18.14-.26,27.45.27,2.18.8,2.34.78,4.74.45-.1.13-.25.16-.09.28.12-.65,1.69-.06,1.92-.69,3.44.12,6.61-.06,10.15-.06-.56.07-.84.61-.18.56l.7-.42.11.18c.45-.1.95-.42.48-.63,8.89-.57,17.64.75,26.35.59,2.07.27,5.01.02,7.26-.11,6.66.88,12.67,1.58,19.43.97,0,0-.88,1.69-3.68,2.09v.02Z"/>
          <path class="cls-2" d="M5.13,29.63c.24.33,1.01.51.39.95-.08-.31-.48-.65-.39-.95Z"/>
          <path class="cls-2" d="M25.82,33c.03-.1.29.13.36.19-.25.02-.49.3-.7.13.26-.03.22-.18.34-.32Z"/>
          <path class="cls-2" d="M31.1,33.2c-.08.29-1.21.52-1.88.56l1.88-.56Z"/>
          <path class="cls-2" d="M36.03,34.4c.43.25.31.38-.27.37-.04-.16.15-.23.27-.37Z"/>
          <path class="cls-2" d="M36.38,33.74c.41,0,.61.17.81.33-.02-.25-.95.16-.81-.33Z"/>
          <path class="cls-2" d="M47.08,34.58c.26-.02.81-.27,1.05.06-.27-.23-1.25.37-1.05-.06Z"/>
          <path class="cls-2" d="M52.05,34.14c.16.02.23.07.41,0,.29.13-.02.35-.27.38l-.15-.37h.01Z"/>
          <polygon class="cls-2" points="142.56 32.97 142.02 33.11 142.1 32.83 142.56 32.97"/>
          <path class="cls-2" d="M182.22,32.96c.54-.18.37.27.46.32-.48.03.18-.36-.46-.32Z"/>
          <polygon class="cls-2" points="203.6 31.5 203.44 31.51 203.5 30.91 203.6 31.5"/>
        </g>
      </g>
    </g>
  </g>
</svg>