<?xml version="1.0" encoding="UTF-8"?>
<svg id="Layer_2" data-name="Layer 2" xmlns="http://www.w3.org/2000/svg" viewBox="0 0 32 32">
  <defs>
    <style>
      .cls-1 {
        fill: #253753;
      }
    </style>
  </defs>
  <g id="Layer_1-2" data-name="Layer 1">
    <path class="cls-1" d="M15.3.29L.29,15.3c-.38.38-.38,1.01,0,1.39l15.02,15.02c.38.38,1.01.38,1.39,0l15.02-15.02c.38-.38.38-1.01,0-1.39L16.7.29c-.38-.38-1.01-.38-1.39,0ZM20.05,12.85l-.25-3.05-2.66-.15v11.87l1.62.49v1.06h-5.44v-.94l1.53-.49v-11.99l-2.68.15-.25,3.05h-1.3l-.32-4.63h11.4l-.32,4.63h-1.33Z"/>
  </g>
</svg>